<svg width="387" height="277" viewBox="0 0 387 277" fill="none" xmlns="http://www.w3.org/2000/svg">
<g opacity="0.1">
<mask id="mask0_1_470" style="mask-type:alpha" maskUnits="userSpaceOnUse" x="0" y="0" width="387" height="277">
<rect x="386.5" y="0.5" width="276" height="386" transform="rotate(90 386.5 0.5)" fill="url(#paint0_linear_1_470)" stroke="#6246E5"/>
</mask>
<g mask="url(#mask0_1_470)">
<path d="M143.505 369.92C74.1725 369.92 17.9659 313.635 17.9659 244.202C17.9659 174.769 74.1725 118.484 143.505 118.484C212.838 118.484 269.045 174.769 269.045 244.202C269.045 313.635 212.838 369.92 143.505 369.92Z" stroke="#6246E5"/>
<path d="M156.773 374.902C79.1967 374.902 16.3076 311.925 16.3076 234.237C16.3076 156.55 79.1967 93.5727 156.773 93.5727C234.349 93.5728 297.238 156.55 297.238 234.237C297.238 311.925 234.349 374.902 156.773 374.902Z" stroke="#6246E5"/>
<path d="M167.552 379.885C82.6489 379.885 13.8199 310.959 13.8199 225.934C13.8199 140.909 82.6489 71.9831 167.552 71.9831C252.456 71.9832 321.285 140.909 321.285 225.934C321.285 310.959 252.456 379.885 167.552 379.885Z" stroke="#6246E5"/>
<path d="M183.308 383.206C91.9928 383.206 17.9663 309.076 17.9663 217.63C17.9663 126.184 91.9929 52.0542 183.308 52.0542C274.623 52.0542 348.649 126.184 348.649 217.63C348.649 309.076 274.623 383.206 183.308 383.206Z" stroke="#6246E5"/>
<path d="M198.648 386.528C101.151 386.528 22.1122 307.378 22.1122 209.742C22.1122 112.105 101.151 32.9553 198.648 32.9553C296.145 32.9553 375.183 112.105 375.183 209.742C375.183 307.379 296.145 386.528 198.648 386.528Z" stroke="#6246E5"/>
<path d="M216.061 390.68C108.947 390.68 22.1122 303.723 22.1122 196.456C22.1122 89.1879 108.947 2.23143 216.061 2.23144C323.176 2.23144 410.01 89.1879 410.01 196.456C410.01 303.723 323.176 390.68 216.061 390.68Z" stroke="#6246E5"/>
</g>
</g>
<defs>
<linearGradient id="paint0_linear_1_470" x1="583.459" y1="10.8577" x2="377.745" y2="381.869" gradientUnits="userSpaceOnUse">
<stop stop-color="#747DEF"/>
<stop offset="1" stop-color="#5E3BE1"/>
</linearGradient>
</defs>
</svg>
